<svg width="600" height="400" viewBox="0 0 600 400" fill="none" xmlns="http://www.w3.org/2000/svg">
  <!-- Background -->
  <rect width="600" height="400" rx="20" fill="#F8FAFC"/>
  
  <!-- Hospital Building -->
  <rect x="70" y="120" width="200" height="180" rx="5" fill="#60A3D9" stroke="#003B73" stroke-width="2"/>
  <rect x="120" y="80" width="100" height="40" rx="5" fill="#60A3D9" stroke="#003B73" stroke-width="2"/>
  <rect x="100" y="160" width="40" height="60" rx="2" fill="#FFFFFF" stroke="#003B73" stroke-width="2"/>
  <rect x="150" y="160" width="40" height="60" rx="2" fill="#FFFFFF" stroke="#003B73" stroke-width="2"/>
  <rect x="200" y="160" width="40" height="60" rx="2" fill="#FFFFFF" stroke="#003B73" stroke-width="2"/>
  <rect x="100" y="230" width="40" height="60" rx="2" fill="#FFFFFF" stroke="#003B73" stroke-width="2"/>
  <rect x="200" y="230" width="40" height="60" rx="2" fill="#FFFFFF" stroke="#003B73" stroke-width="2"/>
  <rect x="150" y="250" width="40" height="40" rx="2" fill="#FFFFFF" stroke="#003B73" stroke-width="2"/>
  <path d="M169.5 250V290" stroke="#003B73" stroke-width="2"/>
  <path d="M150 270H190" stroke="#003B73" stroke-width="2"/>
  
  <!-- Doctor -->
  <circle cx="420" cy="160" r="50" fill="#0074B7"/>
  <circle cx="420" cy="130" r="30" fill="#BFD7ED" stroke="#003B73" stroke-width="2"/>
  <rect x="390" y="160" width="60" height="100" rx="5" fill="#FFFFFF" stroke="#003B73" stroke-width="2"/>
  <rect x="380" y="160" width="20" height="70" rx="5" fill="#FFFFFF" stroke="#003B73" stroke-width="2"/>
  <rect x="440" y="160" width="20" height="70" rx="5" fill="#FFFFFF" stroke="#003B73" stroke-width="2"/>
  <rect x="390" y="230" width="25" height="40" rx="2" fill="#003B73"/>
  <rect x="425" y="230" width="25" height="40" rx="2" fill="#003B73"/>
  <path d="M405 200H435" stroke="#003B73" stroke-width="3"/>
  <circle cx="410" cy="125" r="5" fill="#003B73"/>
  <circle cx="430" cy="125" r="5" fill="#003B73"/>
  <path d="M410 140C415 145 425 145 430 140" stroke="#003B73" stroke-width="2" stroke-linecap="round"/>
  
  <!-- Connection Line -->
  <path d="M270 180C350 180 340 200 420 200" stroke="#0074B7" stroke-width="3" stroke-dasharray="6 6"/>
  
  <!-- MedMatch Icon -->
  <circle cx="340" cy="160" r="30" fill="#0074B7"/>
  <path d="M330 150L340 170L350 150" stroke="white" stroke-width="3" stroke-linecap="round" stroke-linejoin="round"/>
  <path d="M325 160H355" stroke="white" stroke-width="3" stroke-linecap="round"/>
  
  <!-- Text Labels -->
  <rect x="280" y="320" width="120" height="40" rx="10" fill="#0074B7"/>
  <path d="M300 345L310 335L320 345" stroke="white" stroke-width="2" stroke-linecap="round" stroke-linejoin="round"/>
  <path d="M380 345L370 335L360 345" stroke="white" stroke-width="2" stroke-linecap="round" stroke-linejoin="round"/>
  <path d="M315 340H365" stroke="white" stroke-width="2" stroke-linecap="round"/>
</svg> 