<svg width="120" height="40" viewBox="0 0 120 40" fill="none" xmlns="http://www.w3.org/2000/svg">
  <path d="M15 8C8.92487 8 4 12.9249 4 19C4 25.0751 8.92487 30 15 30C21.0751 30 26 25.0751 26 19C26 12.9249 21.0751 8 15 8ZM15 28C10.0294 28 6 23.9706 6 19C6 14.0294 10.0294 10 15 10C19.9706 10 24 14.0294 24 19C24 23.9706 19.9706 28 15 28Z" fill="#0074B7"/>
  <path d="M15 13C15.5523 13 16 13.4477 16 14V19.5858L19.2929 22.8787C19.6834 23.2692 19.6834 23.9024 19.2929 24.2929C18.9024 24.6834 18.2692 24.6834 17.8787 24.2929L14.2929 20.7071C14.1054 20.5196 14 20.2652 14 20V14C14 13.4477 14.4477 13 15 13Z" fill="#0074B7"/>
  <path d="M37 10H35V28H37V20H42V18H37V12H43V10H37Z" fill="#0074B7"/>
  <path d="M50 12V14C48 14 46 15 46 19C46 23 48 24 50 24V26C46 26 44 24 44 19C44 14 46 12 50 12Z" fill="#0074B7"/>
  <path d="M52 10H54V28H52V10Z" fill="#0074B7"/>
  <path d="M61 12V14C63 14 65 15 65 19C65 23 63 24 61 24V26C65 26 67 24 67 19C67 14 65 12 61 12Z" fill="#0074B7"/>
  <path d="M75 12H71V10H81V12H77V28H75V12Z" fill="#0074B7"/>
  <path d="M87 10C84 10 82 13 82 19C82 25 84 28 87 28C90 28 92 25 92 19C92 13 90 10 87 10ZM87 26C85 26 84 24 84 19C84 14 85 12 87 12C89 12 90 14 90 19C90 24 89 26 87 26Z" fill="#0074B7"/>
  <path d="M94 10H96V23C96 25 97 26 99 26C101 26 102 25 102 23V10H104V23C104 26 102 28 99 28C96 28 94 26 94 23V10Z" fill="#0074B7"/>
  <path d="M107 10H109V28H107V10Z" fill="#0074B7"/>
</svg>
